# xmcd
#
# Track frame offsets:
#	150
#	16989
#	32837
#	51930
#	68698
#	86796
#	106445
#	124934
#	144713
#	159554
#	178652
#	195205
#	218715
#	235838
#	252213
#	266925
#	281625
#	301831
#	317794
#
# Disc length: 4449 seconds
#
# Revision: 1
# Processed by: cddbd v1.5.1PL2 Copyright (c) Steve Scherf et al.
# Submitted via: dBpowerAMP V4.0
#
DISCID=14115f13
DTITLE=Patricia Kaas - Worldname
DYEAR=2003
DGENRE=Blues
TTITLE0=Mademoiselle chante le blues
TTITLE1=My man
TTITLE2=Quand j ai peur de tout
TTITLE3=Les mannequins d'osier
TTITLE4=La liberte
TTITLE5=Dallemagne
TTITLE6=Le mot de passe
TTITLE7=If you go away
TTITLE8=Jojo
TTITLE9=Je voudrais la connaotre
TTITLE10=Les hommes qui passent
TTITLE11=Il me dit que je suis belle
TTITLE12=Venus des abribus
TTITLE13=Quand Jimmy dit
TTITLE14=Un homme et une femme
TTITLE15=Kennedy rose
TTITLE16=Dans ma chair
TTITLE17=Regarde les riches
TTITLE18=Lamour devant la mer
EXTD=
EXTT0=
EXTT1=
EXTT2=
EXTT3=
EXTT4=
EXTT5=
EXTT6=
EXTT7=
EXTT8=
EXTT9=
EXTT10=
EXTT11=
EXTT12=
EXTT13=
EXTT14=
EXTT15=
EXTT16=
EXTT17=
EXTT18=
PLAYORDER=
